<?xml version="1.0" encoding="iso-8859-1"?>
<!-- Uploaded to: SVG Repo, www.svgrepo.com, Generator: SVG Repo Mixer Tools -->
<svg version="1.1" id="Layer_1" xmlns="http://www.w3.org/2000/svg" xmlns:xlink="http://www.w3.org/1999/xlink" 
	 viewBox="0 0 512 512" xml:space="preserve">
<g>
	<polygon style="fill:#AFF078;" points="10.07,63.072 10.07,436.207 47.172,436.207 47.525,63.072 	"/>
	<rect x="10.07" y="63.072" style="fill:#AFF078;" width="491.859" height="373.135"/>
</g>
<g>
	<rect x="10.07" y="63.072" style="fill:#5AC779;" width="491.859" height="237.449"/>
	<polygon style="fill:#5AC779;" points="10.07,63.072 10.07,436.207 47.172,436.207 47.525,63.072 	"/>
</g>
<polygon style="fill:#00A085;" points="10.07,63.072 10.07,300.522 48.232,300.522 47.525,63.072 "/>
<path style="fill:#AFF078;" d="M463.768,224.199v-84.803c-23.417,0-42.402-18.984-42.402-42.402H90.634
	c0,23.417-18.984,42.402-42.402,42.402v84.803c23.417,0,42.402,18.984,42.402,42.402h330.733
	C421.366,243.183,440.351,224.199,463.768,224.199z"/>
<circle style="fill:#FFD652;" cx="120.315" cy="262.36" r="89.043"/>
<path style="fill:#FB9D46;" d="M149.996,321.723c-49.177,0-89.043-39.866-89.043-89.043c0-16.982,4.759-32.851,13.008-46.355
	c-25.6,15.64-42.689,43.84-42.689,76.036c0,49.177,39.866,89.043,89.043,89.043c32.196,0,60.396-17.089,76.036-42.689
	C182.847,316.964,166.978,321.723,149.996,321.723z"/>
<circle style="fill:#FFD652;" cx="323.843" cy="415.006" r="89.043"/>
<path style="fill:#FB9D46;" d="M353.524,474.369c-49.177,0-89.043-39.866-89.043-89.043c0-16.982,4.759-32.851,13.008-46.355
	c-25.6,15.64-42.689,43.84-42.689,76.036c0,49.177,39.866,89.043,89.043,89.043c32.196,0,60.396-17.089,76.036-42.689
	C386.374,469.61,370.506,474.369,353.524,474.369z"/>
<circle style="fill:#FFD652;" cx="391.685" cy="96.994" r="89.043"/>
<path style="fill:#FB9D46;" d="M420.306,157.416c-49.177,0-89.043-39.866-89.043-89.043c0-17.257,4.924-33.357,13.422-47
	c-25.236,15.718-42.043,43.701-42.043,75.621c0,49.177,39.866,89.043,89.043,89.043c31.92,0,59.903-16.807,75.621-42.043
	C453.664,152.492,437.564,157.416,420.306,157.416z"/>
<path d="M501.93,223.669c4.391,0,7.95-3.56,7.95-7.95V63.072c0-4.391-3.56-7.95-7.95-7.95h-22.763
	C463.509,22.544,430.182,0,391.685,0c-38.553,0-71.922,22.612-87.549,55.267c-0.484-0.092-0.984-0.145-1.495-0.145h-23.321
	c-4.391,0-7.95,3.56-7.95,7.95s3.56,7.95,7.95,7.95h18.907c-1.615,5.808-2.704,11.833-3.209,18.021H90.634
	c-4.391,0-7.95,3.56-7.95,7.95c0,18.996-15.455,34.451-34.451,34.451c-4.391,0-7.95,3.56-7.95,7.95v67.843
	c0,0.123,0.013,0.244,0.018,0.366c-10.704,15.593-16.979,34.455-16.979,54.756c0,10.544,1.698,20.698,4.823,30.211H18.021V71.023
	h215.718c4.391,0,7.95-3.56,7.95-7.95s-3.56-7.95-7.95-7.95H10.07c-4.391,0-7.95,3.56-7.95,7.95v373.135
	c0,4.391,3.56,7.95,7.95,7.95h40.282c4.391,0,7.95-3.56,7.95-7.95c0-4.391-3.56-7.95-7.95-7.95H18.021v-18.021h208.947
	c-0.077,1.581-0.119,3.171-0.119,4.77c0,4.495,0.315,8.917,0.91,13.251H92.754c-4.391,0-7.95,3.56-7.95,7.95
	c0,4.391,3.56,7.95,7.95,7.95h138.574C243.733,483.439,280.513,512,323.843,512s80.111-28.561,92.515-67.843h85.572
	c4.391,0,7.95-3.56,7.95-7.95V256c0-4.391-3.56-7.95-7.95-7.95s-7.95,3.56-7.95,7.95v36.571H212.485
	c1.902-5.788,3.278-11.813,4.06-18.021h204.821c4.391,0,7.95-3.56,7.95-7.95c0-18.675,14.806-34.451,32.331-34.451
	c4.391,0,7.95-3.56,7.95-7.95v-67.843c0-0.501-0.052-0.99-0.141-1.466c12.069-16.17,19.222-36.213,19.222-57.896
	c0-8.992-1.235-17.702-3.536-25.971h8.837v144.696C493.979,220.11,497.539,223.669,501.93,223.669z M120.315,181.267
	c44.715,0,81.093,36.378,81.093,81.093s-36.378,81.093-81.093,81.093s-81.093-36.379-81.093-81.093S75.6,181.267,120.315,181.267z
	 M243.714,360.414H18.021v-18.021h47.172c0.123,0,0.244-0.013,0.366-0.018c15.593,10.704,34.455,16.979,54.756,16.979
	s39.163-6.274,54.756-16.979c0.122,0.005,0.242,0.018,0.366,0.018h84.177C253.604,347.716,248.256,353.768,243.714,360.414z
	 M33.391,308.472c0.524,0,1.035-0.054,1.531-0.151c3.537,6.545,7.807,12.637,12.695,18.171H18.021v-18.021H33.391z M18.021,394.335
	v-18.021h216.889c-2.507,5.741-4.473,11.769-5.837,18.021H18.021z M323.843,496.099c-44.715,0-81.093-36.379-81.093-81.093
	s36.379-81.093,81.093-81.093s81.093,36.378,81.093,81.093S368.557,496.099,323.843,496.099z M412.776,376.315h81.203v18.021
	h-75.368C417.249,388.083,415.283,382.056,412.776,376.315z M493.979,360.414h-89.574c-0.142,0-0.28,0.014-0.42,0.021
	c-4.545-6.655-9.899-12.714-15.914-18.042h105.908V360.414z M419.927,428.257c0.595-4.333,0.91-8.756,0.91-13.251
	c0-1.6-0.041-3.19-0.119-4.77h73.262v18.021H419.927z M493.979,308.472v18.021H366.244c-0.733,0-1.438,0.107-2.113,0.293
	c-12.277-5.629-25.922-8.773-40.289-8.773s-28.012,3.144-40.289,8.773c-0.673-0.186-1.38-0.293-2.113-0.293h-88.428
	c4.851-5.492,9.094-11.532,12.616-18.021H493.979z M414.046,258.65H217.231c-1.958-51.769-44.676-93.284-96.916-93.284
	c-24.566,0-47.024,9.185-64.133,24.295v-42.943c21.41-3.41,38.364-20.364,41.775-41.774H295.02
	c4.058,49.777,45.861,89.043,96.666,89.043c23.564,0,45.189-8.45,62.012-22.473v45.451
	C433.659,220.605,417.389,237.687,414.046,258.65z M391.685,178.087c-44.715,0-81.093-36.378-81.093-81.093
	s36.379-81.093,81.093-81.093s81.093,36.379,81.093,81.093S436.4,178.087,391.685,178.087z"/>
<path d="M285.681,135.685H263.95v-9.01c0-4.391-3.56-7.95-7.95-7.95s-7.95,3.56-7.95,7.95v9.01h-6.89
	c-10.228,0-18.551,8.322-18.551,18.551v16.961c0,10.228,8.322,18.551,18.551,18.551h6.89v22.261h-21.731
	c-4.391,0-7.95,3.56-7.95,7.95c0,4.391,3.56,7.95,7.95,7.95h21.731v9.01c0,4.391,3.56,7.95,7.95,7.95s7.95-3.56,7.95-7.95v-9.01
	h6.89c10.228,0,18.551-8.322,18.551-18.551v-16.961c0-10.228-8.322-18.551-18.551-18.551h-6.89v-22.261h21.731
	c4.391,0,7.95-3.56,7.95-7.95C293.631,139.245,290.072,135.685,285.681,135.685z M270.841,189.747c1.461,0,2.65,1.189,2.65,2.65
	v16.961c0,1.461-1.189,2.65-2.65,2.65h-6.89v-22.261H270.841z M248.05,173.847h-6.89c-1.461,0-2.65-1.189-2.65-2.65v-16.961
	c0-1.461,1.189-2.65,2.65-2.65h6.89V173.847z"/>
<path d="M90.634,309.532h21.731v9.01c0,4.391,3.56,7.95,7.95,7.95c4.391,0,7.95-3.56,7.95-7.95v-9.01h6.89
	c10.228,0,18.551-8.322,18.551-18.551v-16.961c0-10.228-8.322-18.551-18.551-18.551h-6.89v-22.261h21.731
	c4.391,0,7.95-3.56,7.95-7.95s-3.56-7.95-7.95-7.95h-21.731v-9.01c0-4.391-3.56-7.95-7.95-7.95c-4.391,0-7.95,3.56-7.95,7.95v9.01
	h-6.89c-10.228,0-18.551,8.322-18.551,18.551v16.961c0,10.228,8.322,18.551,18.551,18.551h6.89v22.261H90.634
	c-4.391,0-7.95,3.56-7.95,7.95S86.243,309.532,90.634,309.532z M105.474,255.47c-1.461,0-2.65-1.189-2.65-2.65v-16.961
	c0-1.461,1.189-2.65,2.65-2.65h6.89v22.261H105.474z M128.265,271.371h6.89c1.461,0,2.65,1.189,2.65,2.65v16.961
	c0,1.461-1.189,2.65-2.65,2.65h-6.89V271.371z"/>
<path d="M353.524,369.954h-21.731v-9.01c0-4.391-3.56-7.95-7.95-7.95s-7.95,3.56-7.95,7.95v9.01h-6.89
	c-10.228,0-18.551,8.322-18.551,18.551v16.961c0,10.228,8.322,18.551,18.551,18.551h6.89v22.261h-21.731
	c-4.391,0-7.95,3.56-7.95,7.95s3.56,7.95,7.95,7.95h21.731v9.01c0,4.391,3.56,7.95,7.95,7.95s7.95-3.56,7.95-7.95v-9.01h6.89
	c10.228,0,18.551-8.322,18.551-18.551v-16.961c0-10.228-8.322-18.551-18.551-18.551h-6.89v-22.261h21.731
	c4.391,0,7.95-3.56,7.95-7.95C361.474,373.514,357.915,369.954,353.524,369.954z M338.683,424.017c1.461,0,2.65,1.189,2.65,2.65
	v16.961c0,1.461-1.189,2.65-2.65,2.65h-6.89v-22.261H338.683z M315.892,408.116h-6.89c-1.461,0-2.65-1.189-2.65-2.65v-16.961
	c0-1.461,1.189-2.65,2.65-2.65h6.89V408.116z"/>
<path d="M421.366,51.942h-21.731v-9.01c0-4.391-3.56-7.95-7.95-7.95s-7.95,3.56-7.95,7.95v9.01h-6.89
	c-10.228,0-18.551,8.322-18.551,18.551v16.961c0,10.228,8.322,18.551,18.551,18.551h6.89v22.261h-21.731
	c-4.391,0-7.95,3.56-7.95,7.95c0,4.391,3.56,7.95,7.95,7.95h21.731v9.01c0,4.391,3.56,7.95,7.95,7.95s7.95-3.56,7.95-7.95v-9.01
	h6.89c10.228,0,18.551-8.322,18.551-18.551v-16.961c0-10.228-8.322-18.551-18.551-18.551h-6.89V67.843h21.731
	c4.391,0,7.95-3.56,7.95-7.95S425.757,51.942,421.366,51.942z M406.526,106.004c1.461,0,2.65,1.189,2.65,2.65v16.961
	c0,1.461-1.189,2.65-2.65,2.65h-6.89v-22.261H406.526z M383.735,90.104h-6.89c-1.461,0-2.65-1.189-2.65-2.65V70.493
	c0-1.461,1.189-2.65,2.65-2.65h6.89V90.104z"/>
</svg>