<?xml version="1.0" encoding="iso-8859-1"?>
<!-- Uploaded to: SVG Repo, www.svgrepo.com, Generator: SVG Repo Mixer Tools -->
<svg version="1.1" id="Layer_1" xmlns="http://www.w3.org/2000/svg" xmlns:xlink="http://www.w3.org/1999/xlink" 
	 viewBox="0 0 512 512" xml:space="preserve">
<path style="fill:#FFD652;" d="M488.149,314.302H189.217c-8.781,0-15.901-7.119-15.901-15.901V113.954
	c0-8.781,7.119-15.901,15.901-15.901h298.932c8.781,0,15.901,7.119,15.901,15.901v184.447
	C504.05,307.183,496.93,314.302,488.149,314.302z"/>
<rect x="173.317" y="151.056" style="fill:#5AC779;" width="330.733" height="42.402"/>
<rect x="222.079" y="216.778" style="fill:#FFFFFF;" width="235.329" height="38.161"/>
<path style="fill:#FB9D46;" d="M189.217,98.054c-8.781,0-15.901,7.119-15.901,15.901v184.447c0,8.781,7.119,15.901,15.901,15.901
	h130.385V98.054H189.217z"/>
<rect x="173.317" y="151.056" style="fill:#00A085;" width="146.286" height="42.402"/>
<rect x="222.079" y="216.778" style="fill:#E5E5E5;" width="98.054" height="38.161"/>
<path style="fill:#666666;" d="M280.381,500.87H23.851c-8.781,0-15.901-7.119-15.901-15.901V63.072
	c0-8.781,7.119-15.901,15.901-15.901h256.53c8.781,0,15.901,7.119,15.901,15.901v421.896
	C296.282,493.75,289.162,500.87,280.381,500.87z"/>
<path style="fill:#4C4C4C;" d="M24.911,484.969V63.072c0-8.781,7.119-15.901,15.901-15.901H23.851
	c-8.781,0-15.901,7.119-15.901,15.901v421.896c0,8.781,7.119,15.901,15.901,15.901h16.961
	C32.03,500.87,24.911,493.75,24.911,484.969z"/>
<path style="fill:#AFF078;" d="M246.46,314.302H57.772c-8.781,0-15.901-7.119-15.901-15.901v-57.242
	c0-8.781,7.119-15.901,15.901-15.901H246.46c8.781,0,15.901,7.119,15.901,15.901v57.242
	C262.36,307.183,255.241,314.302,246.46,314.302z"/>
<g>
	<path style="fill:#F2F2F2;" d="M246.46,225.259h-7.95l-89.043,89.043h36.571l76.046-76.046
		C260.717,230.863,254.249,225.259,246.46,225.259z"/>
	<polygon style="fill:#F2F2F2;" points="194.518,225.259 105.474,314.302 135.685,314.302 224.729,225.259 	"/>
</g>
<g>
	<circle style="fill:#B2B2B2;" cx="75.793" cy="377.905" r="23.321"/>
	<circle style="fill:#B2B2B2;" cx="228.439" cy="377.905" r="23.321"/>
	<circle style="fill:#B2B2B2;" cx="152.116" cy="377.905" r="23.321"/>
</g>
<circle style="fill:#FF7452;" cx="75.793" cy="449.988" r="23.321"/>
<circle style="fill:#5AC779;" cx="228.439" cy="449.988" r="23.321"/>
<circle style="fill:#FFD652;" cx="152.116" cy="449.988" r="23.321"/>
<path style="fill:#F2F2F2;" d="M72.613,11.13h159.006c8.781,0,15.901,7.119,15.901,15.901v162.186H56.712V27.031
	C56.712,18.25,63.831,11.13,72.613,11.13z"/>
<path style="fill:#E5E5E5;" d="M106.232,11.13H72.613c-8.781,0-15.901,7.119-15.901,15.901v162.186h162.762L106.232,11.13z"/>
<path d="M488.149,90.104h-73.143c-4.391,0-7.95,3.56-7.95,7.95c0,4.391,3.56,7.95,7.95,7.95h73.143c4.384,0,7.95,3.566,7.95,7.95
	v29.151H304.232v-37.101h57.772c4.391,0,7.95-3.56,7.95-7.95c0-4.391-3.56-7.95-7.95-7.95h-57.772V63.072
	c0-13.152-10.699-23.851-23.851-23.851H255.47v-12.19c0-13.152-10.699-23.851-23.851-23.851H72.613
	c-13.152,0-23.851,10.699-23.851,23.851v12.19H23.851C10.699,39.222,0,49.921,0,63.072v143.106c0,4.391,3.56,7.95,7.95,7.95
	s7.95-3.56,7.95-7.95V63.072c0-4.384,3.566-7.95,7.95-7.95h24.911v128.265h-11.13c-4.391,0-7.95,3.56-7.95,7.95s3.56,7.95,7.95,7.95
	H266.6c4.391,0,7.95-3.56,7.95-7.95s-3.56-7.95-7.95-7.95h-11.13V55.122h24.911c4.384,0,7.95,3.566,7.95,7.95v421.896
	c0,4.384-3.566,7.95-7.95,7.95H23.851c-4.384,0-7.95-3.566-7.95-7.95V263.42c0-4.391-3.56-7.95-7.95-7.95S0,259.029,0,263.42
	v221.549c0,13.152,10.699,23.851,23.851,23.851h256.53c13.152,0,23.851-10.699,23.851-23.851V322.253h183.917
	c13.152,0,23.851-10.699,23.851-23.851V113.954C512,100.803,501.301,90.104,488.149,90.104z M64.663,183.387V27.031
	c0-4.384,3.566-7.95,7.95-7.95h159.006c4.384,0,7.95,3.566,7.95,7.95v156.356H64.663z M496.099,159.006v26.501H304.232v-26.501
	H496.099z M488.149,306.352H304.232V201.408h191.867v96.994C496.099,302.786,492.533,306.352,488.149,306.352z"/>
<path d="M448.928,272.431H347.164c-4.391,0-7.95,3.56-7.95,7.95s3.56,7.95,7.95,7.95h101.764c4.391,0,7.95-3.56,7.95-7.95
	S453.318,272.431,448.928,272.431z"/>
<path d="M270.311,298.402v-57.242c0-13.152-10.699-23.851-23.851-23.851H57.772c-13.152,0-23.851,10.699-23.851,23.851v57.242
	c0,13.152,10.699,23.851,23.851,23.851H246.46C259.612,322.253,270.311,311.554,270.311,298.402z M254.41,298.402
	c0,4.384-3.566,7.95-7.95,7.95H57.772c-4.384,0-7.95-3.566-7.95-7.95v-57.242c0-4.384,3.566-7.95,7.95-7.95H246.46
	c4.384,0,7.95,3.566,7.95,7.95V298.402z"/>
<path d="M75.793,346.634c-17.243,0-31.271,14.029-31.271,31.271c0,17.243,14.029,31.271,31.271,31.271s31.271-14.029,31.271-31.271
	C107.064,360.662,93.036,346.634,75.793,346.634z M75.793,393.275c-8.475,0-15.371-6.896-15.371-15.371
	c0-8.475,6.896-15.371,15.371-15.371s15.371,6.896,15.371,15.371C91.164,386.38,84.268,393.275,75.793,393.275z"/>
<path d="M228.439,346.634c-17.243,0-31.271,14.029-31.271,31.271c0,17.243,14.029,31.271,31.271,31.271s31.271-14.029,31.271-31.271
	C259.71,360.662,245.682,346.634,228.439,346.634z M228.439,393.275c-8.475,0-15.371-6.896-15.371-15.371
	c0-8.475,6.896-15.371,15.371-15.371c8.475,0,15.371,6.896,15.371,15.371C243.81,386.38,236.914,393.275,228.439,393.275z"/>
<path d="M152.116,346.634c-17.243,0-31.271,14.029-31.271,31.271c0,17.243,14.029,31.271,31.271,31.271
	c17.243,0,31.271-14.029,31.271-31.271C183.387,360.662,169.359,346.634,152.116,346.634z M152.116,393.275
	c-8.475,0-15.371-6.896-15.371-15.371c0-8.475,6.896-15.371,15.371-15.371c8.475,0,15.371,6.896,15.371,15.371
	C167.487,386.38,160.591,393.275,152.116,393.275z"/>
<path d="M75.793,418.716c-17.243,0-31.271,14.029-31.271,31.271c0,17.243,14.029,31.271,31.271,31.271s31.271-14.029,31.271-31.271
	C107.064,432.745,93.036,418.716,75.793,418.716z M75.793,465.358c-8.475,0-15.371-6.896-15.371-15.371
	c0-8.475,6.896-15.371,15.371-15.371s15.371,6.896,15.371,15.371C91.164,458.463,84.268,465.358,75.793,465.358z"/>
<path d="M228.439,418.716c-17.243,0-31.271,14.029-31.271,31.271c0,17.243,14.029,31.271,31.271,31.271s31.271-14.029,31.271-31.271
	C259.71,432.745,245.682,418.716,228.439,418.716z M228.439,465.358c-8.475,0-15.371-6.896-15.371-15.371
	c0-8.475,6.896-15.371,15.371-15.371c8.475,0,15.371,6.896,15.371,15.371C243.81,458.463,236.914,465.358,228.439,465.358z"/>
<path d="M152.116,418.716c-17.243,0-31.271,14.029-31.271,31.271c0,17.243,14.029,31.271,31.271,31.271
	c17.243,0,31.271-14.029,31.271-31.271C183.387,432.745,169.359,418.716,152.116,418.716z M152.116,465.358
	c-8.475,0-15.371-6.896-15.371-15.371c0-8.475,6.896-15.371,15.371-15.371c8.475,0,15.371,6.896,15.371,15.371
	C167.487,458.463,160.591,465.358,152.116,465.358z"/>
<path d="M101.234,55.122h59.362c4.391,0,7.95-3.56,7.95-7.95s-3.56-7.95-7.95-7.95h-59.362c-4.391,0-7.95,3.56-7.95,7.95
	S96.843,55.122,101.234,55.122z"/>
<path d="M202.998,90.104H101.234c-4.391,0-7.95,3.56-7.95,7.95c0,4.391,3.56,7.95,7.95,7.95h101.764c4.391,0,7.95-3.56,7.95-7.95
	C210.948,93.663,207.389,90.104,202.998,90.104z"/>
<path d="M202.998,143.106H101.234c-4.391,0-7.95,3.56-7.95,7.95c0,4.391,3.56,7.95,7.95,7.95h101.764c4.391,0,7.95-3.56,7.95-7.95
	C210.948,146.665,207.389,143.106,202.998,143.106z"/>
</svg>